<svg class="icon" viewBox="0 0 1024 1024" xmlns="http://www.w3.org/2000/svg" width="50" height="50"><path d="M505.278.812a.869.869 0 0 0-1.736 0 .867.867 0 1 0 1.736 0zM60.883 560.974c-8.943-5.764-14.832-15.812-14.832-27.254.035-11.403 5.983-21.455 14.957-27.19l432.93-276.67c9.623-6.134 22.231-6.998 32.957-1.109 10.735 5.888 16.807 16.957 16.807 28.394v164.663L916.27 223.387c9.679-5.15 21.766-5.239 31.878.835 10.078 6.043 15.692 16.737 15.692 27.714v566.687c0 11.01-5.644 21.737-15.755 27.776-10.144 6.042-22.262 5.919-31.941.709l-372.44-200.396v166.637c0 11.468-6.109 22.571-16.868 28.425a32.299 32.299 0 0 1-33.018-1.23L60.883 560.974zm0 0"/></svg>