<svg class="icon" viewBox="0 0 1024 1024" xmlns="http://www.w3.org/2000/svg" width="50" height="50"><path d="M895.317 213.568c-3.328-14.997-17.642-24.32-31.978-20.843l-138.88 33.664c-9.366 2.262-16.832 9.6-19.563 19.243-2.71 9.6-.277 20.053 6.4 27.264l30.293 32.79L579.627 456.81l-84.096-83.307a25.813 25.813 0 0 0-37.59 1.003L277.504 572.395c-22.08-4.822-44.65 5.397-56.384 25.557a57.813 57.813 0 0 0 4.139 64.128c14.229 18.304 37.93 25.259 59.178 17.365s35.456-28.906 35.456-52.501c0-6.037-1.152-11.733-2.858-17.173l161.13-176.704 82.603 81.813a25.792 25.792 0 0 0 36.053.555l181.803-169.622 34.56 37.419c6.677 7.21 16.533 10.133 25.813 7.616 9.302-2.517 16.576-10.048 19.072-19.733l37.014-144.043a28.89 28.89 0 0 0 .213-13.504z"/><path d="M848.768 480.597c-14.293 0-25.92 12.267-25.92 27.414v217.322c0 15.147-11.584 27.435-25.899 27.435H227.051c-14.294 0-25.899-12.288-25.899-27.435V231.616c0-15.147 11.584-27.435 25.899-27.435h429.568c14.314 0 25.92-12.266 25.92-27.413s-11.606-27.435-25.92-27.435H227.05c-42.944 0-77.718 36.843-77.718 82.283v493.717c0 45.44 34.795 82.283 77.718 82.283h569.898c42.944 0 77.718-36.843 77.718-82.283V508.011c0-15.147-11.606-27.414-25.899-27.414zm-12.95 381.867H188.16c-14.293 0-25.899 12.288-25.899 27.435 0 15.146 11.606 27.434 25.899 27.434h647.68c14.293 0 25.899-12.288 25.899-27.434 0-15.147-11.606-27.414-25.899-27.414z"/></svg>