<svg class="icon" viewBox="0 0 1024 1024" xmlns="http://www.w3.org/2000/svg" width="50" height="50"><path d="M1008.242 940.715c0 20.992-18.432 38.115-40.05 38.115H62.18a38.912 38.912 0 0 1-39.424-38.115c0-21.05 17.806-38.173 39.424-38.173h906.069c21.618 0 40.05 17.18 40.05 38.116M896.341 190.407c22.244 0 40.05 17.18 40.05 38.116v578.56c0 21.049-17.806 38.229-40.05 38.229h-166.57a38.969 38.969 0 0 1-39.424-38.172V228.58c0-21.05 17.806-38.173 39.424-38.173h166.57zm-127.146 578.56h87.722V266.638h-87.722v502.33zM598.812 323.925c21.618 0 39.424 17.18 39.424 38.116V807.14a38.969 38.969 0 0 1-39.424 38.115H431.56a38.969 38.969 0 0 1-39.367-38.115V362.098c0-21.05 17.806-38.173 39.367-38.173h167.253zM471.666 769.024h87.097V400.27h-87.097v368.754zM300.6 56.889c21.618 0 40.05 17.18 40.05 38.115V807.14c0 20.992-18.432 38.115-40.05 38.115H133.404A38.969 38.969 0 0 1 93.98 807.14V95.004c0-21.048 17.807-38.172 39.424-38.172h167.197zM173.454 769.024h87.097V133.12h-87.097v635.847z"/></svg>