<svg class="icon" viewBox="0 0 1024 1024" xmlns="http://www.w3.org/2000/svg" width="50" height="50"><path d="M476.723 112.503L121.634 279.825a68.267 68.267 0 0 0 1.69 124.28l355.089 155.648a68.267 68.267 0 0 0 54.818 0l355.089-155.7a68.267 68.267 0 0 0 1.673-124.28l-355.09-167.252a68.267 68.267 0 0 0-58.197 0zm-325.99 229.07l355.089-167.305L860.894 341.52l-355.09 155.7-355.071-155.649zm710.11 343.773a34.133 34.133 0 0 1 28.962 61.781l-2.407 1.127-368.81 155.682a34.133 34.133 0 0 1-23.672 1.075l-2.867-1.075-368.794-155.648a34.133 34.133 0 0 1 24.064-63.83l2.492.94 355.499 150.05 355.533-150.102z"/><path d="M853.333 512L511.846 665.634l-341.18-153.293v55.211c0 13.466 7.749 25.651 19.713 30.925l286.19 126.976a78.797 78.797 0 0 0 35.277 8.397c12.05 0 24.081-2.8 35.294-8.397l286.498-127.25a33.74 33.74 0 0 0 19.695-30.924V512z"/></svg>