<svg class="icon" viewBox="0 0 1024 1024" xmlns="http://www.w3.org/2000/svg" width="50" height="50"><path d="M983.9 785.386v-560.5h.18l-.18-4.696c-.18-5.239-.723-10.477-1.807-15.715-2.89-25.47-21.675-44.977-45.519-47.687H122.288c-11.742 0-23.483 1.626-34.862 5.238-30.346 10.296-50.758 40.1-50.577 74.06v534.85a103.628 103.628 0 0 0 17.702 59.788l.361.723 5.419 3.974c18.244 21.856 44.977 34.32 73.517 34.5h770.574c37.752 0 70.266-27.094 79.478-66.291l.18-.542c.362-5.961.362-11.741-.18-17.702zM390.164 547.494l55.454 49.854 43.893 40.1c5.42 5.961 13.006 9.574 21.134 9.574 7.948 0 15.535-3.432 21.134-9.573l101.154-91.942L905.686 809.23H126.623l263.541-261.735zm120.12 30.346L111.45 216.035h4.154c214.41-.903 703.56-2.89 793.876-.361L510.284 577.84zm165.458-69.724l251.62-227.957v474.52l-251.62-246.563zm-328.568.181L93.206 760.278V278.895l253.968 229.402z"/></svg>