<svg class="icon" viewBox="0 0 1024 1024" xmlns="http://www.w3.org/2000/svg" width="50" height="50"><path d="M549.045 512l166.189-166.25a26.383 26.383 0 0 0 0-36.984 26.383 26.383 0 0 0-37.045 0L512 475.016l-166.25-166.25a26.383 26.383 0 0 0-36.984 0 26.383 26.383 0 0 0 0 37.045L475.016 512l-166.25 166.25a26.383 26.383 0 0 0 0 36.984 26.383 26.383 0 0 0 37.045 0L512 548.984l166.25 166.25a26.383 26.383 0 0 0 36.984 0 26.383 26.383 0 0 0 0-37.045L548.984 512zM512 1024A512 512 0 1 1 512 0a512 512 0 0 1 0 1024z"/></svg>