<svg class="icon" viewBox="0 0 1024 1024" xmlns="http://www.w3.org/2000/svg" width="50" height="50"><path d="M505.386.812a.869.869 0 0 0-1.736 0 .867.867 0 1 0 1.736 0zm442.66 508.31c8.943 5.764 14.832 15.811 14.832 27.254-.035 11.402-5.984 21.455-14.957 27.19l-432.93 276.67c-9.623 6.133-22.231 6.998-32.957 1.108-10.734-5.887-16.808-16.958-16.808-28.393V648.289L92.66 846.71c-9.68 5.147-21.766 5.237-31.878-.837-10.078-6.042-15.693-16.736-15.693-27.714V251.473c0-11.009 5.644-21.737 15.756-27.776 10.143-6.043 22.26-5.919 31.94-.71l372.44 200.396V256.746c0-11.467 6.109-22.57 16.868-28.423a32.295 32.295 0 0 1 33.019 1.23l432.934 279.569zm0 0"/></svg>