<svg class="icon" viewBox="0 0 1024 1024" xmlns="http://www.w3.org/2000/svg" width="50" height="50"><path d="M958.4 451.548a20.007 20.007 0 0 0-6.966-14.97L524.347 69.511c-7.503-6.446-18.581-6.446-26.084 0L310.617 230.786V130.423c0-11.05-8.958-20.007-20.007-20.007h-88.034c-11.05 0-20.008 8.958-20.008 20.007V340.84L71.333 436.578c-4.424 3.802-6.81 9.343-6.81 15.174v105.06c0 8.132 4.641 15.755 12.14 18.903a19.536 19.536 0 0 0 7.627 1.545c4.699 0 9.308-1.654 13.008-4.836l53.258-45.826v344.109c0 49.724 40.31 90.034 90.035 90.034h156.461a20.061 20.061 0 0 1-.402-4V680.633c0-22.1 17.915-40.016 40.015-40.016h134.051c22.1 0 40.016 17.915 40.016 40.016v276.105c0 1.37-.14 2.709-.403 4.001H784.8c49.724 0 90.034-40.31 90.034-90.034v-343.68l51.141 43.953c5.134 4.413 12.126 6.31 18.66 4.539a20.015 20.015 0 0 0 14.831-19.534L958.4 451.548z"/></svg>