<svg class="icon" viewBox="0 0 1024 1024" xmlns="http://www.w3.org/2000/svg" width="50" height="50"><path d="M872 1024H152a88 88 0 0 1-88-88V440a88 88 0 0 1 88-88h720a88 88 0 0 1 88 88v496a88 88 0 0 1-88 88zM152 416a24 24 0 0 0-24 24v496a24 24 0 0 0 24 24h720a24 24 0 0 0 24-24V440a24 24 0 0 0-24-24z"/><path d="M832 368h-64c0-167.68-114.88-304-256-304S256 200.32 256 368h-64C192 165.12 335.68 0 512 0s320 165.12 320 368zM448 608a64 64 0 1 0 128 0 64 64 0 1 0-128 0z"/><path d="M512 576q24 0 24 24v144q0 24-24 24t-24-24V600q0-24 24-24z"/></svg>