<svg class="icon" viewBox="0 0 1024 1024" xmlns="http://www.w3.org/2000/svg" width="50" height="50"><path d="M514.56 962.56c-246.784 0-448-201.216-448-448s201.216-448 448-448 448 201.216 448 448-201.216 448-448 448zm0-834.56C301.568 128 128 301.568 128 514.56s173.568 386.56 386.56 386.56 386.56-173.568 386.56-386.56S727.552 128 514.56 128z"/><path d="M737.28 482.816H291.84c-15.36 0-28.16-12.8-28.16-28.16s12.8-28.16 28.16-28.16h445.44c15.36 0 28.16 12.8 28.16 28.16s-12.8 28.16-28.16 28.16z"/><path d="M615.936 293.376l141.312 141.312c10.752 10.752 10.752 28.672 0 39.936-10.752 10.752-28.672 10.752-39.936 0L576 333.312c-10.752-10.752-10.752-28.672 0-39.936 11.264-10.752 29.184-10.752 39.936 0zM311.808 555.008L453.12 696.32c10.752 10.752 10.752 28.672 0 39.936-10.752 10.752-28.672 10.752-39.936 0L271.872 594.944c-10.752-10.752-10.752-28.672 0-39.936s28.672-11.264 39.936 0z"/><path d="M737.28 603.136H291.84c-15.36 0-28.16-12.8-28.16-28.16s12.8-28.16 28.16-28.16h445.44c15.36 0 28.16 12.8 28.16 28.16s-12.8 28.16-28.16 28.16z"/></svg>