<svg class="icon" viewBox="0 0 1024 1024" xmlns="http://www.w3.org/2000/svg" width="50" height="50"><path d="M977.216 909.056l-166.4-166.464a435.072 435.072 0 0 0 95.872-272.896 437.376 437.376 0 1 0-437.312 437.312 434.752 434.752 0 0 0 273.664-96.512l166.336 166.336a48.512 48.512 0 0 0 68.8.896 48.64 48.64 0 0 0-.96-68.672zM128.064 469.76a341.312 341.312 0 1 1 682.624 0 341.312 341.312 0 0 1-682.688 0z"/><path d="M627.52 427.648H311.296a42.816 42.816 0 0 0-43.328 42.176c0 23.296 19.456 42.112 43.328 42.112h316.16a42.88 42.88 0 0 0 43.328-42.112 42.88 42.88 0 0 0-43.264-42.176z"/></svg>