<svg class="icon" viewBox="0 0 1024 1024" xmlns="http://www.w3.org/2000/svg" width="50" height="50"><path d="M462.9 858.3c-96 0-192.1-35.4-266.9-106.6C41.5 604.5 35.5 359 182.7 204.5 254 129.6 350.2 87 453.5 84.5c103.3-2.4 201.5 35.4 276.3 106.7 74.9 71.3 117.5 167.5 120 270.8s-35.4 201.5-106.7 276.3c-75.8 79.8-177.9 120-280.2 120zm.3-730.7c-2.8 0-5.7 0-8.6.1-91.8 2.2-177.3 40.1-240.6 106.6C83.2 371.5 88.5 589.6 225.8 720.4S581.2 845.9 712 708.6c63.4-66.5 97-153.7 94.8-245.5-2.2-91.8-40.1-177.3-106.6-240.6-64.5-61.4-148.3-94.9-237-94.9z"/><path d="M862.1 928.3c-17.7 0-35.5-6.5-49.3-19.7l-150.1-143 19.3-15.4c12.6-10 24.3-20.7 34.8-31.7 10.5-11 20.6-23.2 30-36.3l14.5-20.1 150.1 143c13.8 13.1 21.6 30.9 22.1 50s-6.5 37.2-19.6 51c-14.1 14.8-33 22.2-51.8 22.2zM727.8 768l114.8 109.4c11.3 10.8 29.2 10.3 40-1s10.3-29.2-1-40L766.8 727c-6.1 7.4-12.3 14.5-18.7 21.2-6.5 6.8-13.2 13.4-20.3 19.8zm-459-216.2c-9.8-23.6-15.2-49-15.9-75.3-1.4-56.1 19.2-109.5 58-150.1 1.2-1.3 2.4-2.5 3.7-3.8 38.3-38.3 89.1-60.1 143.5-61.4 30.3-.7 59.2 5 85.5 16l32.6-32.6c-35.8-17.9-76.3-27.6-119.1-26.6-67.7 1.6-130.7 29.3-177.3 78.6-46.7 49-71.5 113.3-69.9 180.9.9 37.8 10 74.1 26.4 106.9l32.5-32.6zM657 390.1c9.9 23.5 15.7 49.1 16.3 76.1 2.8 115.9-89.2 212.5-205.1 215.3-30.1.7-59.4-4.9-86.4-16.2l-32.6 32.6c36.7 18.5 77.7 27.8 120 26.8 67.6-1.6 128.5-29.8 172.9-74.2 47.3-47.3 76-113.2 74.3-185.3-.9-38.7-10.6-75.1-26.9-107.6L657 390.1z"/><path d="M287.283 615.504l188.401-62.199 6.05 18.327-188.4 62.199zM430.89 361.097l188.4-62.199 6.051 18.327-188.4 62.199z"/><path d="M472.411 564.972l-27.36-196.516 19.117-2.661 27.36 196.515zM590 314a33.8 33.8 0 1 0 67.6 0 33.8 33.8 0 1 0-67.6 0z"/><path d="M623.8 360.8c-25.8 0-46.8-21-46.8-46.8 0-25.8 21-46.8 46.8-46.8 25.8 0 46.8 21 46.8 46.8 0 25.8-21 46.8-46.8 46.8zm0-67.5c-11.4 0-20.7 9.3-20.7 20.7 0 11.4 9.3 20.7 20.7 20.7s20.7-9.3 20.7-20.7c0-11.4-9.3-20.7-20.7-20.7zm-207.9 70.6a33.8 33.8 0 1 0 67.6 0 33.8 33.8 0 1 0-67.6 0z"/><path d="M449.7 410.7c-25.8 0-46.8-21-46.8-46.8 0-25.8 21-46.8 46.8-46.8 25.8 0 46.8 21 46.8 46.8 0 25.8-21 46.8-46.8 46.8zm0-67.5c-11.4 0-20.7 9.3-20.7 20.7 0 11.4 9.3 20.7 20.7 20.7 11.4 0 20.7-9.3 20.7-20.7 0-11.5-9.3-20.7-20.7-20.7zM268.6 628.7a33.8 33.8 0 1 0 67.6 0 33.8 33.8 0 1 0-67.6 0z"/><path d="M302.4 675.5c-25.8 0-46.8-21-46.8-46.8 0-25.8 21-46.8 46.8-46.8 25.8 0 46.8 21 46.8 46.8 0 25.8-21 46.8-46.8 46.8zm0-67.5c-11.4 0-20.7 9.3-20.7 20.7 0 11.4 9.3 20.7 20.7 20.7 11.4 0 20.7-9.3 20.7-20.7 0-11.4-9.3-20.7-20.7-20.7zm138.5-47.5a33.8 33.8 0 1 0 67.6 0 33.8 33.8 0 1 0-67.6 0z"/><path d="M474.7 607.3c-25.8 0-46.8-21-46.8-46.8s21-46.8 46.8-46.8 46.8 21 46.8 46.8-21 46.8-46.8 46.8zm0-67.5c-11.4 0-20.7 9.3-20.7 20.7 0 11.4 9.3 20.7 20.7 20.7s20.7-9.3 20.7-20.7c0-11.4-9.3-20.7-20.7-20.7z"/></svg>