<svg class="icon" viewBox="0 0 1024 1024" xmlns="http://www.w3.org/2000/svg" width="50" height="50"><path d="M192 800h736l-96 128H96z"/><path d="M928 768v32l-96 128H96v-32h736z"/><path d="M928 736v32l-96 128H96v-32h736z"/><path d="M928 704v32l-96 128H96v-32h736z"/><path d="M928 672v32l-96 128H96v-32h736z"/><path d="M928 640v32l-96 128H96v-32h736z"/><path d="M928 608v32l-96 128H96v-32h736z"/><path d="M192 608h736l-96 128H96zM96 224h64v64H96v-64zM256 96h64v64h-64V96zm352 128h64v64h-64v-64zm224 160h96v96h-96v-96zm-640 64h32v32h-32v-32zm304-122.816V480a16 16 0 1 1-32 0V327.968l-36.896 35.552a16 16 0 0 1-22.208-23.04l77.92-75.104 72.704 75.52a16 16 0 1 1-23.04 22.208L496 325.184zM416 64h128v128H416V64zM288 288h64v64h-64v-64zm0 192h64v64h-64v-64zm288 0h64v64h-64v-64zm160-32h32v32h-32v-32z"/></svg>