<svg class="icon" viewBox="0 0 1024 1024" xmlns="http://www.w3.org/2000/svg" width="50" height="50"><path d="M917.504 713.728H834.56v-83.456c0-16.896-13.312-30.208-30.208-30.208s-30.208 13.824-30.208 30.208v83.456H691.2c-16.384 0-30.208 13.824-30.208 30.208 0 16.896 13.312 30.208 30.208 30.208h82.944V857.6c0 16.896 13.312 30.208 30.208 30.208 16.384 0 30.208-13.824 30.208-30.208v-83.456h82.944c16.384 0 30.208-13.824 30.208-30.208s-13.824-30.208-30.208-30.208zM490.496 546.816c-100.864 0-183.808-81.92-183.808-185.344s82.944-183.808 183.808-183.808 183.808 81.92 183.808 185.344-82.432 183.808-183.808 183.808zm179.712 118.272c4.608 4.608 12.288 7.68 19.456 7.68 16.384 0 28.672-13.824 28.672-28.672 0-9.216-4.608-18.432-12.288-24.064-28.672-22.528-60.416-37.888-89.088-47.104 69.632-44.032 117.76-119.808 117.76-209.92 0-135.168-110.08-243.2-243.2-243.2-134.144 0-242.688 109.568-242.688 244.736 0 88.064 45.056 165.888 116.224 208.384-202.24 71.168-220.16 279.552-220.16 282.624-1.536 16.896 10.752 31.744 27.136 31.744 16.384 1.536 31.744-10.752 33.28-27.136 0-10.752 22.528-237.056 283.648-252.416 4.608-.512 99.84-4.608 181.248 57.344-1.536 0-1.536 0 0 0z"/></svg>