<svg class="icon" viewBox="0 0 1024 1024" xmlns="http://www.w3.org/2000/svg" width="50" height="50"><path d="M891.307 279.04c-2.134-37.547-29.44-68.693-66.134-75.947-47.786-7.253-95.146-18.346-141.653-32-44.8-17.92-86.613-41.813-124.587-71.253-30.72-20.48-71.68-18.773-100.693 4.693-35.84 31.147-78.08 54.614-123.733 67.84-43.52 17.92-89.174 29.44-136.107 33.707-37.547 4.693-66.133 35.84-67.84 73.813V518.4c3.413 208.64 247.893 420.693 383.147 420.693 132.693 0 342.613-147.626 374.613-416.426 5.547-81.494 6.4-162.56 2.987-243.627zm-70.4 236.8C791.893 751.787 608.853 870.4 514.133 870.4 473.6 870.4 394.24 832 321.28 758.613c-76.373-76.8-120.747-164.693-122.453-241.066V281.6c.426-4.267 3.84-7.68 7.68-8.107 51.626-5.12 102.4-17.493 150.613-37.12 52.907-16.213 102.827-43.52 144.213-79.786 3.414-2.56 7.254-3.414 9.814-3.414 2.133 0 5.12.427 8.106 2.134 42.24 32.426 88.747 58.88 138.24 78.506l2.987 1.28 2.987.854c48.64 14.506 98.56 26.026 148.906 34.133 5.974 1.28 9.814 6.4 10.667 12.373 3.413 77.654 2.56 156.16-2.133 233.387z"/><path d="M493.653 637.867c-13.226 13.226-34.986 13.226-48.213 0L324.693 517.12c-13.226-13.227-13.226-34.987 0-48.213 13.227-13.227 34.987-13.227 48.214 0l120.746 120.746c13.227 13.227 13.227 34.987 0 48.214z"/><path d="M699.733 432.213L493.227 638.72c-12.8 12.8-33.707 12.8-46.934 0-12.8-12.8-12.8-33.707 0-46.933L652.8 385.28c12.8-12.8 33.707-12.8 46.933 0 12.8 12.8 12.8 33.707 0 46.933z"/></svg>