<svg class="icon" viewBox="0 0 1024 1024" xmlns="http://www.w3.org/2000/svg" width="200" height="200"><defs><style/></defs><path d="M734.903 224.584L838.501 75.857l-57.755-38.566L667.66 199.638c-47.193-13.982-99.4-22.336-156.802-22.336-333.173 0-509.824 315.956-509.824 315.956s107.735 158.616 296.712 237.437l-148.312 212.92 57.755 38.568 158.733-227.88c44.755 12.391 93.153 19.794 144.936 19.794 319.11 0 509.867-280.837 509.867-280.837s-89.559-180.543-285.822-268.676zM327.221 475.98c0-99.12 82.36-179.492 183.952-179.492 27.664 0 53.894 5.97 77.432 16.645l-63.352 90.948a81.528 81.528 0 00-14.374-1.293c-44.477 0-80.533 35.764-80.533 79.87a78.992 78.992 0 0011.509 41.153l-57.343 82.322c-35.287-32.704-57.291-78.921-57.291-130.153zm183.952 179.491c-23.896 0-46.726-4.448-67.673-12.54l56.523-81.146c3.552.475 7.172.743 10.856.743 44.478 0 80.532-35.764 80.532-79.87 0-13.794-3.527-26.772-9.735-38.096l63.649-91.375c30.88 32.106 49.802 75.293 49.802 122.792-.003 99.125-82.362 179.492-183.954 179.492z" fill="#dbdbdb"/></svg>