<svg class="icon" viewBox="0 0 1024 1024" xmlns="http://www.w3.org/2000/svg" width="200" height="200"><defs><style/></defs><path d="M962 512.09c0-5.4-.93-9.93-1.2-10.44-.18-2.7-1.08-7.56-1.95-10.14-.24-.63-.51-1.29-.78-1.95-.45-1.47-.96-2.91-1.5-4.05C873.56 303.98 694.91 182 512 182c-182.88 0-361.53 121.89-444.15 302.43-.99 1.98-1.68 3.84-2.13 5.49a52.042 52.042 0 00-.6 1.5c-1.65 4.77-1.68 8.1-1.53 7.26-.78 3.51-1.47 10.47-1.47 10.47-.21 2.13-.21 3.78.03 5.91 0 0 .69 6.06 1.02 7.32.12 1.71.54 4.23 1.05 6.54h-.03c.42 1.95 1.05 3.84 1.86 5.7.45 1.44.93 2.79 1.38 3.78C150.53 719.99 329.18 842 512 842c182.94 0 361.59-121.92 443.64-301.59 1.29-2.34 2.1-4.53 2.67-6.48.24-.57.45-1.11.63-1.62 1.44-4.2 1.74-7.8 1.62-7.8l-.03.03c.57-2.91 1.47-7.26 1.47-12.45zm-60.63 2.22c-.03.15-.09.3-.12.45-.12.39-.27.81-.39 1.29C827.03 675.2 671.09 782 512 782c-158.7 0-314.37-106.47-388.95-266.22-.15-.54-.3-1.08-.48-1.59-.06-.51-.15-.96-.18-1.26-.06-.33-.12-.75-.18-1.17l.03-.39c.15-.66.27-1.35.36-2.07.12-.39.24-.78.36-1.2C196.85 348.86 352.91 242 512 242c159.15 0 315.18 106.95 388.83 265.95.09.3.15.57.24.78.06.27.15.54.24.81.15 1.2.3 2.37.45 2.97-.18.6-.27 1.2-.39 1.8z" fill="#dbdbdb"/><path d="M512 362c-82.71 0-150 67.29-150 150s67.29 150 150 150 150-67.29 150-150-67.29-150-150-150zm0 240c-49.62 0-90-40.38-90-90s40.38-90 90-90 90 40.38 90 90-40.38 90-90 90z" fill="#dbdbdb"/></svg>