<svg t="1656589902335" class="icon" viewBox="0 0 1024 1024" version="1.1" xmlns="http://www.w3.org/2000/svg" p-id="3496" width="40" height="40"><path d="M707.982 903.889c-8.805 0-17.65-2.828-25.14-8.685l-356.91-279.696c-32.232-25.261-50.759-63.271-50.759-104.268 0-41.038 18.527-79.047 50.799-104.308l354.878-278.141c17.811-13.905 43.388-10.758 57.294 6.933 13.905 17.729 10.797 43.388-6.933 57.294l-354.917 278.141c-12.43 9.722-19.523 24.305-19.523 40.082 0 15.738 7.092 30.321 19.483 40.043l356.949 279.696c17.729 13.905 20.838 39.523 6.933 57.294-8.047 10.239-20.040 15.618-32.152 15.618z" p-id="3497" fill="#ffffff"></path></svg>