<svg t="1653100083180" class="icon" viewBox="0 0 1024 1024" version="1.1" xmlns="http://www.w3.org/2000/svg" p-id="7644" width="50" height="50"><path d="M430.149424 786.80226h208.271186v133.062147c0 57.511774-46.629605 104.135593-104.135593 104.135593-57.517559 0-104.135593-46.623819-104.135593-104.135593v-133.062147z" fill="#C5AC95" p-id="7645"></path><path d="M125.142056 565.884384c0 50.899164 41.260836 92.16 92.16 92.16 50.893379 0 92.154215-41.260836 92.154215-92.16 0-50.893379-41.260836-92.154215-92.16-92.154215-50.893379 0-92.154215 41.260836-92.154215 92.16z" fill="#C9AB90" p-id="7646"></path><path d="M280.587571 321.084746m-141.740113 0a141.740113 141.740113 0 1 0 283.480226 0 141.740113 141.740113 0 1 0-283.480226 0Z" fill="#4D4132" p-id="7647"></path><path d="M497.536723 127.276836h11.570622c166.148339 0 300.836158 134.687819 300.836158 300.836158v208.271187c0 166.148339-134.687819 300.836158-300.836158 300.836158h-11.570622c-166.148339 0-300.836158-134.687819-300.836158-300.836158V428.112994c0-166.148339 134.687819-300.836158 300.836158-300.836158z" fill="#EBD3BD" p-id="7648"></path><path d="M80.99435 0h619.028249c83.077062 0 150.418079 67.341017 150.418079 150.418079v133.062147H231.412429C148.335367 283.480226 80.99435 216.139209 80.99435 133.062147V0z" fill="#4D4132" p-id="7649"></path><path d="M940.112994 141.740113V439.683616c0 62.307797-50.505763 112.813559-112.813559 112.813559h-66.531073a46.282486 46.282486 0 0 1-46.282486-46.282486v-364.474576h225.627118z" fill="#4D4132" p-id="7650"></path><path d="M323.977401 723.163842c0 63.904542 51.801672 115.706215 115.706215 115.706214s115.706215-51.801672 115.706215-115.706214H323.977401z" fill="#E89E80" p-id="7651"></path><path d="M739.51313 560.099073c0 50.899164 41.260836 92.16 92.154215 92.16s92.16-41.260836 92.16-92.16c0-50.893379-41.266621-92.154215-92.16-92.154214s-92.16 41.260836-92.16 92.16z" fill="#EBD3BD" p-id="7652"></path><path d="M790.707345 555.644384a40.96 40.96 0 1 0 81.92 0.017356 40.96 40.96 0 0 0-81.92-0.017356z" fill="#E89E80" p-id="7653"></path><path d="M217.296271 473.267345a81.92 81.92 0 1 0 163.834215 0c0-45.24113-36.67887-81.914215-81.92-81.914215s-81.914215 36.67887-81.914215 81.92z" fill="#FFFFFF" p-id="7654"></path><path d="M252.47096 472.602034a35.84 35.84 0 1 0 71.68 0 35.84 35.84 0 0 0-71.68 0z" fill="#514141" p-id="7655"></path><path d="M504.004701 473.267345c0 45.24113 36.67887 81.92 81.92 81.92s81.908429-36.67887 81.908429-81.92-36.673085-81.914215-81.914215-81.914215-81.92 36.67887-81.92 81.92z" fill="#FFFFFF" p-id="7656"></path><path d="M539.17939 472.602034a35.84 35.84 0 1 0 71.674215 0 35.84 35.84 0 0 0-71.68 0z" fill="#514141" p-id="7657"></path><path d="M208.271186 318.19209m28.926554 0l127.276836 0q28.926554 0 28.926554 28.926554l0 0q0 28.926554-28.926554 28.926554l-127.276836 0q-28.926554 0-28.926554-28.926554l0 0q0-28.926554 28.926554-28.926554Z" fill="#4D4132" p-id="7658"></path><path d="M500.426738 289.631843m27.350594 9.417565l120.342613 41.437285q27.350594 9.417565 17.933029 36.768158l0 0q-9.417565 27.350594-36.768159 17.933029l-120.342613-41.437284q-27.350594-9.417565-17.933029-36.768159l0 0q9.417565-27.350594 36.768159-17.933029Z" fill="#4D4132" p-id="7659"></path></svg>