<svg viewBox="0 0 1200 1200" xmlns:xlink="http://www.w3.org/1999/xlink" xmlns="http://www.w3.org/2000/svg"><defs><style>.cls-1{opacity:0.17;fill:url(#未命名的渐变_33);}.cls-11,.cls-13,.cls-2,.cls-3,.cls-4,.cls-5,.cls-6{opacity:0.3;}.cls-2{fill:url(#未命名的渐变_33-2);}.cls-3{fill:url(#未命名的渐变_33-3);}.cls-4{fill:url(#未命名的渐变_33-4);}.cls-5{fill:url(#未命名的渐变_162);}.cls-6{fill:url(#未命名的渐变_162-2);}.cls-7{fill:url(#未命名的渐变_69);}.cls-8{fill:#fff;}.cls-12,.cls-9{opacity:0.5;}.cls-9{fill:url(#未命名的渐变_156);}.cls-10{fill:#c4f2e2;}.cls-11{fill:url(#未命名的渐变_171);}.cls-12{fill:url(#未命名的渐变_156-2);}.cls-13{fill:url(#未命名的渐变_171-2);}</style><linearGradient gradientUnits="userSpaceOnUse" y2="781.23" x2="601" y1="1079.98" x1="601" id="未命名的渐变_33"><stop stop-opacity="0" stop-color="#fff" offset="0"></stop><stop stop-color="#4be2ac" offset="0.77"></stop></linearGradient><linearGradient xlink:href="#未命名的渐变_33" y2="193.69" x2="937.74" y1="356.35" x1="937.74" id="未命名的渐变_33-2"></linearGradient><linearGradient xlink:href="#未命名的渐变_33" y2="395.3" x2="252.37" y1="557.95" x1="252.37" id="未命名的渐变_33-3"></linearGradient><linearGradient xlink:href="#未命名的渐变_33" y2="565.47" x2="1020.06" y1="661.73" x1="1020.06" id="未命名的渐变_33-4"></linearGradient><linearGradient gradientUnits="userSpaceOnUse" y2="329.79" x2="1112.19" y1="369.62" x1="1112.19" id="未命名的渐变_162"><stop stop-opacity="0.4" stop-color="#6de7bb" offset="0"></stop><stop stop-color="#55e2ac" offset="0.77"></stop></linearGradient><linearGradient xlink:href="#未命名的渐变_162" y2="197.01" x2="292.29" y1="263.4" x1="292.29" id="未命名的渐变_162-2"></linearGradient><linearGradient gradientUnits="userSpaceOnUse" y2="797.38" x2="597.3" y1="885.6" x1="597.3" id="未命名的渐变_69"><stop stop-opacity="0.02" stop-color="#009eaa" offset="0"></stop><stop stop-opacity="0.2" stop-color="#004c55" offset="0.77"></stop></linearGradient><linearGradient gradientUnits="userSpaceOnUse" y2="820.4" x2="597.85" y1="384.56" x1="597.85" id="未命名的渐变_156"><stop stop-opacity="0.62" stop-color="#6de7bb" offset="0"></stop><stop stop-color="#55e2ac" offset="0.77"></stop></linearGradient><linearGradient xlink:href="#未命名的渐变_33" y2="602.48" x2="793.97" y1="602.48" x1="374.49" id="未命名的渐变_171"></linearGradient><linearGradient xlink:href="#未命名的渐变_156" y2="862.89" x2="716.61" y1="623.18" x1="716.61" id="未命名的渐变_156-2"></linearGradient><linearGradient xlink:href="#未命名的渐变_33" y2="747.15" x2="814.68" y1="747.15" x1="619.36" id="未命名的渐变_171-2"></linearGradient></defs><g id="图层_1"><path d="M1200,1080c-21.32-166.9-281.33-298.75-599-298.75S23.32,913.08,2,1080Z" class="cls-1"></path><path d="M1002.8,356.35a58.56,58.56,0,0,0,0-117.11c-1.1,0-2.13.26-3.21.32a64.63,64.63,0,0,0-123.7,0c-1.09-.06-2.12-.32-3.21-.32a58.56,58.56,0,1,0,0,117.11Z" class="cls-2"></path><path d="M317.43,558a58.55,58.55,0,1,0,0-117.1c-1.1,0-2.13.26-3.21.32a64.63,64.63,0,0,0-123.7,0c-1.09-.06-2.11-.32-3.21-.32a58.55,58.55,0,1,0,0,117.1Z" class="cls-3"></path><path d="M1058.56,661.73a34.66,34.66,0,1,0,0-69.31c-.65,0-1.25.16-1.9.19a38.26,38.26,0,0,0-73.21,0c-.64,0-1.25-.19-1.9-.19a34.66,34.66,0,0,0,0,69.31Z" class="cls-4"></path><circle r="19.92" cy="349.71" cx="1112.19" class="cls-5"></circle><circle r="33.19" cy="230.21" cx="292.29" class="cls-6"></circle><path d="M770.16,852c26.65-5.66,42.39-12.58,42.39-20.08,0-19.07-101.72-34.54-227.21-34.54s-227.21,15.47-227.21,34.54c0,18.73,98.06,34,220.37,34.52a2.76,2.76,0,0,0-.33,1.23c0,9.9,57.82,17.93,129.15,17.93s129.15-8,129.15-17.93C836.47,860.93,809.71,855.07,770.16,852Z" class="cls-7"></path><rect rx="16" height="435.84" width="435.84" y="384.56" x="379.93" class="cls-8"></rect><rect rx="31.41" height="435.84" width="435.84" y="384.56" x="379.93" class="cls-9"></rect><path d="M724.24,384.56H670.46l-296,410.94a69.58,69.58,0,0,0,53.38,24.9H724.24A69.73,69.73,0,0,0,794,750.66V454.29A69.73,69.73,0,0,0,724.24,384.56Z" class="cls-10"></path><path d="M724.24,384.56H670.46l-296,410.94a69.58,69.58,0,0,0,53.38,24.9H724.24A69.73,69.73,0,0,0,794,750.66V454.29A69.73,69.73,0,0,0,724.24,384.56Z" class="cls-11"></path><path d="M427.87,384.56a69.74,69.74,0,0,0-69.74,69.73V750.66a69.48,69.48,0,0,0,16.36,44.84l296-410.94Z" class="cls-10"></path><path d="M480.79,431a21.54,21.54,0,0,1-21.56-21.56v-51.2a21.56,21.56,0,1,1,43.12,0v51.2A21.58,21.58,0,0,1,480.79,431Zm192.08,0a21.55,21.55,0,0,1-21.56-21.56v-51.2a21.57,21.57,0,1,1,43.13,0v51.2A21.59,21.59,0,0,1,672.87,431Zm0,0" class="cls-10"></path><path d="M588,743.58a115.08,115.08,0,0,1,115-115c37,0,91.73,33.79,112.77,61V650.42C780.9,611.19,737.64,602.48,703,602.48c-77.8,0-141.1,63.3-141.1,141.1a140.24,140.24,0,0,0,22.83,76.82h32.84A114.49,114.49,0,0,1,588,743.58Z" class="cls-8"></path><circle r="119.86" cy="743.04" cx="716.61" class="cls-8"></circle><circle r="119.86" cy="743.04" cx="716.61" class="cls-12"></circle><path d="M726.43,529.86H425.21a22.43,22.43,0,0,1,0-44.86H726.43a22.43,22.43,0,1,1,0,44.86Z" class="cls-8"></path><path d="M531.3,633.08H425.21a22.43,22.43,0,0,1,0-44.86H531.3a22.43,22.43,0,1,1,0,44.86Z" class="cls-8"></path><path d="M738.44,631.4,619.36,836.14A119.85,119.85,0,1,0,738.44,631.4Z" class="cls-10"></path><path d="M738.44,631.4,619.36,836.14A119.85,119.85,0,1,0,738.44,631.4Z" class="cls-13"></path><path d="M694.82,623.18a119.84,119.84,0,0,0-75.46,213L738.44,631.4A119.42,119.42,0,0,0,694.82,623.18Z" class="cls-10"></path><path d="M671.49,771.92a22.55,22.55,0,0,1-6-16.57l-.08-71.63a22.43,22.43,0,0,1,39.34-13.05,23.31,23.31,0,0,1,5.56,16.62V734.6l41.06.09a22.44,22.44,0,1,1-.11,44.87l-63.15-.24a22.43,22.43,0,0,1-16.38-7.17Z" class="cls-8"></path></g></svg>